<svg xmlns="http://www.w3.org/2000/svg" height="48" viewBox="0 96 960 960" width="48"><path d="M198 570q-18 10-36.5 4T134 550L38 357q-9-17-3-36t24-27q17-8 36-2.5t27 22.5l96 193q8 18 2.5 36.5T198 570Zm143 288q-17 9-35.5 3T277 836l-76-152q-8-18-1.5-35.5T223 621q18-8 35.5-2.5T286 642l77 152q8 18 2 36.5T341 858Zm78-208q-18 10-36.5 4T356 630L219 357q-8-17-2.5-36t23.5-27q17-8 36-2.5t28 22.5l136 273q8 18 2 36.5T419 650Zm88-200q-18 10-36.5 4T442 430l-36-74q-8-17-2-35t24-28q17-8 35-2t28 23l36 73q8 18 2.5 36T507 450Zm26 407q-17 9-35.5 3T469 836l-36-72q-9-18-2.5-36t23.5-27q18-8 36-2t28 24l37 71q8 17 2 35.5T533 857Zm187 0q-17 9-36 3t-28-24L520 564q-8-18-2-35.5t23-27.5q18-8 36-2.5t28 23.5l136 272q8 17 2.5 35.5T720 857Zm58-247q-18 10-36.5 3.5T714 589L597 356q-8-17-2-35t24-28q17-8 35.5-2t27.5 23l116 233q8 18 2.5 36.5T778 610Zm123 248q-17 9-35.5 2.5T837 836l-56-112q-9-18-2.5-36t23.5-27q18-9 36-3t28 24l56 112q8 18 2.5 36.5T901 858Z"/></svg>